# xmcd CD database file
#
# Track frame offsets:
#	150
#	16245
#	33343
#	53306
#	70976
#	91023
#	111306
#	131589
#	152742
#	170950
#	186776
#	207309
#	222151
#	242072
#	261328
#	283869
#
# Disc length: 4173 seconds
#
# Revision: 2
# Processed by: cddbd v1.5.2PL0 Copyright (c) Steve Scherf et al.
# Submitted via: CDex 1.70beta3
#
DISCID=e6104b10
DTITLE=Zeno - Zenology
DYEAR=1995
DGENRE=Melodic Hard Rock
TTITLE0=Heat Of Emotion
TTITLE1=Is It Love
TTITLE2=Together
TTITLE3=Surviving The Night
TTITLE4=In The Dark
TTITLE5=Let There Be Heaven
TTITLE6=Man On The Run
TTITLE7=Out In The Night
TTITLE8=You Got Me Down
TTITLE9=Ticket To Nowhere
TTITLE10=In Love With An Angel
TTITLE11=Crystal Dreams (Instrumental)
TTITLE12=Eastern Sun (Bonus Tracks)
TTITLE13=Out In The Night (Bonus Tracks)
TTITLE14=Heart On The Wing (Bonus Tracks)
TTITLE15=Love Will Live (Extended 12" Version)
EXTD=YEAR: 1995
EXTT0=
EXTT1=
EXTT2=
EXTT3=
EXTT4=
EXTT5=
EXTT6=
EXTT7=
EXTT8=
EXTT9=
EXTT10=
EXTT11=
EXTT12=
EXTT13=
EXTT14=
EXTT15=
PLAYORDER=
